# xmcd CD database file
#
# Track frame offsets:
#	150
#	27572
#	58854
#	61923
#	74808
#	91081
#	128226
#	169662
#	183055
#	195059
#	220767
#	240722
#	265112
#	292832
#	313629
#	331371
#
# Disc length: 4748 seconds
#
# Revision: 0
# Processed by: cddbd v1.5.2PL0 Copyright (c) Steve Scherf et al.
# Submitted via: CDex 1.70beta2
#
DISCID=e2128a10
DTITLE=Miles Davis - The Complete Live Recordings 1956-57 CD2
DYEAR=2009
DGENRE=Jazz
TTITLE0=14-07-56 St-Louis - Oleo
TTITLE1=Airegin - The Theme
TTITLE2=The Theme
TTITLE3=12-11-56 Sindelfingen - Tune up
TTITLE4=What's New ?
TTITLE5=How High the Moon
TTITLE6=Lester Leaps In
TTITLE7=19-11-56 Zurich - Four
TTITLE8=Walkin'
TTITLE9=Lady Be Good
TTITLE10=08-12-56 Philadelphie - Tune Up
TTITLE11=Walkin'
TTITLE12=13-07-57 New York - Four
TTITLE13=Bye Bye Blackbird
TTITLE14=It Never Entered My Mind
TTITLE15=Walkin'
EXTD=YEAR: 2009
EXTT0=
EXTT1=
EXTT2=
EXTT3=
EXTT4=
EXTT5=
EXTT6=
EXTT7=
EXTT8=
EXTT9=
EXTT10=
EXTT11=
EXTT12=
EXTT13=
EXTT14=
EXTT15=
PLAYORDER=
